<svg xmlns="http://www.w3.org/2000/svg" viewBox="0 0 782 310" role="img" aria-label="1F1B 多 stage 的 micro-batch 前后向时间线">
<style>text{font-family:system-ui,sans-serif;fill:#334155}</style>
<rect width="782" height="310" fill="#fff"/>
<text x="14" y="25" font-size="17" text-anchor="start" font-weight="600" style="fill:#334155">1F1B</text>
<text x="764" y="25" font-size="13" text-anchor="end" font-weight="400" style="fill:#64748b">P = 4 · M = 6</text>
<rect x="14" y="42" width="18" height="14" rx="2" fill="#dfe7ff" stroke="#3f56a4" stroke-width="1"/>
<text x="39" y="54" font-size="12" text-anchor="start" font-weight="400" style="fill:#334155">F 前向</text>
<rect x="159" y="42" width="18" height="14" rx="2" fill="#d9eee3" stroke="#247249" stroke-width="1"/>
<text x="184" y="54" font-size="12" text-anchor="start" font-weight="400" style="fill:#334155">B 完整反向</text>
<text x="14" y="75" font-size="12" text-anchor="start" font-weight="400" style="fill:#64748b">数字 = micro-batch 编号；空白 = 等待</text>
<text x="764" y="75" font-size="12" text-anchor="end" font-weight="400" style="fill:#64748b">时间 →</text>
<rect x="6" y="92" width="768" height="33" rx="4" fill="#f8fafc" stroke="none" stroke-width="1"/>
<text x="13" y="112.0" font-size="12" text-anchor="start" font-weight="600" style="fill:#334155">S0</text>
<rect x="6" y="132" width="768" height="33" rx="4" fill="#f8fafc" stroke="none" stroke-width="1"/>
<text x="13" y="152.0" font-size="12" text-anchor="start" font-weight="600" style="fill:#334155">S1</text>
<rect x="6" y="172" width="768" height="33" rx="4" fill="#f8fafc" stroke="none" stroke-width="1"/>
<text x="13" y="192.0" font-size="12" text-anchor="start" font-weight="600" style="fill:#334155">S2</text>
<rect x="6" y="212" width="768" height="33" rx="4" fill="#f8fafc" stroke="none" stroke-width="1"/>
<text x="13" y="232.0" font-size="12" text-anchor="start" font-weight="600" style="fill:#334155">S3</text>
<path d="M58 88 V245" stroke="#e2e8f0" stroke-width="1"/>
<text x="58" y="271" font-size="11" text-anchor="middle" font-weight="400" style="fill:#64748b">0</text>
<path d="M162 88 V245" stroke="#e2e8f0" stroke-width="1"/>
<text x="162" y="271" font-size="11" text-anchor="middle" font-weight="400" style="fill:#64748b">4</text>
<path d="M266 88 V245" stroke="#e2e8f0" stroke-width="1"/>
<text x="266" y="271" font-size="11" text-anchor="middle" font-weight="400" style="fill:#64748b">8</text>
<path d="M370 88 V245" stroke="#e2e8f0" stroke-width="1"/>
<text x="370" y="271" font-size="11" text-anchor="middle" font-weight="400" style="fill:#64748b">12</text>
<path d="M474 88 V245" stroke="#e2e8f0" stroke-width="1"/>
<text x="474" y="271" font-size="11" text-anchor="middle" font-weight="400" style="fill:#64748b">16</text>
<path d="M578 88 V245" stroke="#e2e8f0" stroke-width="1"/>
<text x="578" y="271" font-size="11" text-anchor="middle" font-weight="400" style="fill:#64748b">20</text>
<path d="M682 88 V245" stroke="#e2e8f0" stroke-width="1"/>
<text x="682" y="271" font-size="11" text-anchor="middle" font-weight="400" style="fill:#64748b">24</text>
<path d="M760 88 V245" stroke="#e2e8f0" stroke-width="1"/>
<text x="760" y="271" font-size="11" text-anchor="middle" font-weight="400" style="fill:#64748b">27</text>
<rect x="59" y="96" width="24" height="22" rx="2" fill="#dfe7ff" stroke="#3f56a4" stroke-width="0.7"/>
<text x="71.0" y="112" font-size="12" text-anchor="middle" font-weight="400" style="fill:#3f56a4">F1</text>
<rect x="85" y="96" width="24" height="22" rx="2" fill="#dfe7ff" stroke="#3f56a4" stroke-width="0.7"/>
<text x="97.0" y="112" font-size="12" text-anchor="middle" font-weight="400" style="fill:#3f56a4">F2</text>
<rect x="111" y="96" width="24" height="22" rx="2" fill="#dfe7ff" stroke="#3f56a4" stroke-width="0.7"/>
<text x="123.0" y="112" font-size="12" text-anchor="middle" font-weight="400" style="fill:#3f56a4">F3</text>
<rect x="137" y="96" width="24" height="22" rx="2" fill="#dfe7ff" stroke="#3f56a4" stroke-width="0.7"/>
<text x="149.0" y="112" font-size="12" text-anchor="middle" font-weight="400" style="fill:#3f56a4">F4</text>
<rect x="319" y="96" width="50" height="22" rx="2" fill="#d9eee3" stroke="#247249" stroke-width="0.7"/>
<text x="344.0" y="112" font-size="12" text-anchor="middle" font-weight="400" style="fill:#247249">B1</text>
<rect x="371" y="96" width="24" height="22" rx="2" fill="#dfe7ff" stroke="#3f56a4" stroke-width="0.7"/>
<text x="383.0" y="112" font-size="12" text-anchor="middle" font-weight="400" style="fill:#3f56a4">F5</text>
<rect x="397" y="96" width="50" height="22" rx="2" fill="#d9eee3" stroke="#247249" stroke-width="0.7"/>
<text x="422.0" y="112" font-size="12" text-anchor="middle" font-weight="400" style="fill:#247249">B2</text>
<rect x="449" y="96" width="24" height="22" rx="2" fill="#dfe7ff" stroke="#3f56a4" stroke-width="0.7"/>
<text x="461.0" y="112" font-size="12" text-anchor="middle" font-weight="400" style="fill:#3f56a4">F6</text>
<rect x="475" y="96" width="50" height="22" rx="2" fill="#d9eee3" stroke="#247249" stroke-width="0.7"/>
<text x="500.0" y="112" font-size="12" text-anchor="middle" font-weight="400" style="fill:#247249">B3</text>
<rect x="553" y="96" width="50" height="22" rx="2" fill="#d9eee3" stroke="#247249" stroke-width="0.7"/>
<text x="578.0" y="112" font-size="12" text-anchor="middle" font-weight="400" style="fill:#247249">B4</text>
<rect x="631" y="96" width="50" height="22" rx="2" fill="#d9eee3" stroke="#247249" stroke-width="0.7"/>
<text x="656.0" y="112" font-size="12" text-anchor="middle" font-weight="400" style="fill:#247249">B5</text>
<rect x="709" y="96" width="50" height="22" rx="2" fill="#d9eee3" stroke="#247249" stroke-width="0.7"/>
<text x="734.0" y="112" font-size="12" text-anchor="middle" font-weight="400" style="fill:#247249">B6</text>
<rect x="85" y="136" width="24" height="22" rx="2" fill="#dfe7ff" stroke="#3f56a4" stroke-width="0.7"/>
<text x="97.0" y="152" font-size="12" text-anchor="middle" font-weight="400" style="fill:#3f56a4">F1</text>
<rect x="111" y="136" width="24" height="22" rx="2" fill="#dfe7ff" stroke="#3f56a4" stroke-width="0.7"/>
<text x="123.0" y="152" font-size="12" text-anchor="middle" font-weight="400" style="fill:#3f56a4">F2</text>
<rect x="137" y="136" width="24" height="22" rx="2" fill="#dfe7ff" stroke="#3f56a4" stroke-width="0.7"/>
<text x="149.0" y="152" font-size="12" text-anchor="middle" font-weight="400" style="fill:#3f56a4">F3</text>
<rect x="267" y="136" width="50" height="22" rx="2" fill="#d9eee3" stroke="#247249" stroke-width="0.7"/>
<text x="292.0" y="152" font-size="12" text-anchor="middle" font-weight="400" style="fill:#247249">B1</text>
<rect x="319" y="136" width="24" height="22" rx="2" fill="#dfe7ff" stroke="#3f56a4" stroke-width="0.7"/>
<text x="331.0" y="152" font-size="12" text-anchor="middle" font-weight="400" style="fill:#3f56a4">F4</text>
<rect x="345" y="136" width="50" height="22" rx="2" fill="#d9eee3" stroke="#247249" stroke-width="0.7"/>
<text x="370.0" y="152" font-size="12" text-anchor="middle" font-weight="400" style="fill:#247249">B2</text>
<rect x="397" y="136" width="24" height="22" rx="2" fill="#dfe7ff" stroke="#3f56a4" stroke-width="0.7"/>
<text x="409.0" y="152" font-size="12" text-anchor="middle" font-weight="400" style="fill:#3f56a4">F5</text>
<rect x="423" y="136" width="50" height="22" rx="2" fill="#d9eee3" stroke="#247249" stroke-width="0.7"/>
<text x="448.0" y="152" font-size="12" text-anchor="middle" font-weight="400" style="fill:#247249">B3</text>
<rect x="475" y="136" width="24" height="22" rx="2" fill="#dfe7ff" stroke="#3f56a4" stroke-width="0.7"/>
<text x="487.0" y="152" font-size="12" text-anchor="middle" font-weight="400" style="fill:#3f56a4">F6</text>
<rect x="501" y="136" width="50" height="22" rx="2" fill="#d9eee3" stroke="#247249" stroke-width="0.7"/>
<text x="526.0" y="152" font-size="12" text-anchor="middle" font-weight="400" style="fill:#247249">B4</text>
<rect x="579" y="136" width="50" height="22" rx="2" fill="#d9eee3" stroke="#247249" stroke-width="0.7"/>
<text x="604.0" y="152" font-size="12" text-anchor="middle" font-weight="400" style="fill:#247249">B5</text>
<rect x="657" y="136" width="50" height="22" rx="2" fill="#d9eee3" stroke="#247249" stroke-width="0.7"/>
<text x="682.0" y="152" font-size="12" text-anchor="middle" font-weight="400" style="fill:#247249">B6</text>
<rect x="111" y="176" width="24" height="22" rx="2" fill="#dfe7ff" stroke="#3f56a4" stroke-width="0.7"/>
<text x="123.0" y="192" font-size="12" text-anchor="middle" font-weight="400" style="fill:#3f56a4">F1</text>
<rect x="137" y="176" width="24" height="22" rx="2" fill="#dfe7ff" stroke="#3f56a4" stroke-width="0.7"/>
<text x="149.0" y="192" font-size="12" text-anchor="middle" font-weight="400" style="fill:#3f56a4">F2</text>
<rect x="215" y="176" width="50" height="22" rx="2" fill="#d9eee3" stroke="#247249" stroke-width="0.7"/>
<text x="240.0" y="192" font-size="12" text-anchor="middle" font-weight="400" style="fill:#247249">B1</text>
<rect x="267" y="176" width="24" height="22" rx="2" fill="#dfe7ff" stroke="#3f56a4" stroke-width="0.7"/>
<text x="279.0" y="192" font-size="12" text-anchor="middle" font-weight="400" style="fill:#3f56a4">F3</text>
<rect x="293" y="176" width="50" height="22" rx="2" fill="#d9eee3" stroke="#247249" stroke-width="0.7"/>
<text x="318.0" y="192" font-size="12" text-anchor="middle" font-weight="400" style="fill:#247249">B2</text>
<rect x="345" y="176" width="24" height="22" rx="2" fill="#dfe7ff" stroke="#3f56a4" stroke-width="0.7"/>
<text x="357.0" y="192" font-size="12" text-anchor="middle" font-weight="400" style="fill:#3f56a4">F4</text>
<rect x="371" y="176" width="50" height="22" rx="2" fill="#d9eee3" stroke="#247249" stroke-width="0.7"/>
<text x="396.0" y="192" font-size="12" text-anchor="middle" font-weight="400" style="fill:#247249">B3</text>
<rect x="423" y="176" width="24" height="22" rx="2" fill="#dfe7ff" stroke="#3f56a4" stroke-width="0.7"/>
<text x="435.0" y="192" font-size="12" text-anchor="middle" font-weight="400" style="fill:#3f56a4">F5</text>
<rect x="449" y="176" width="50" height="22" rx="2" fill="#d9eee3" stroke="#247249" stroke-width="0.7"/>
<text x="474.0" y="192" font-size="12" text-anchor="middle" font-weight="400" style="fill:#247249">B4</text>
<rect x="501" y="176" width="24" height="22" rx="2" fill="#dfe7ff" stroke="#3f56a4" stroke-width="0.7"/>
<text x="513.0" y="192" font-size="12" text-anchor="middle" font-weight="400" style="fill:#3f56a4">F6</text>
<rect x="527" y="176" width="50" height="22" rx="2" fill="#d9eee3" stroke="#247249" stroke-width="0.7"/>
<text x="552.0" y="192" font-size="12" text-anchor="middle" font-weight="400" style="fill:#247249">B5</text>
<rect x="605" y="176" width="50" height="22" rx="2" fill="#d9eee3" stroke="#247249" stroke-width="0.7"/>
<text x="630.0" y="192" font-size="12" text-anchor="middle" font-weight="400" style="fill:#247249">B6</text>
<rect x="137" y="216" width="24" height="22" rx="2" fill="#dfe7ff" stroke="#3f56a4" stroke-width="0.7"/>
<text x="149.0" y="232" font-size="12" text-anchor="middle" font-weight="400" style="fill:#3f56a4">F1</text>
<rect x="163" y="216" width="50" height="22" rx="2" fill="#d9eee3" stroke="#247249" stroke-width="0.7"/>
<text x="188.0" y="232" font-size="12" text-anchor="middle" font-weight="400" style="fill:#247249">B1</text>
<rect x="215" y="216" width="24" height="22" rx="2" fill="#dfe7ff" stroke="#3f56a4" stroke-width="0.7"/>
<text x="227.0" y="232" font-size="12" text-anchor="middle" font-weight="400" style="fill:#3f56a4">F2</text>
<rect x="241" y="216" width="50" height="22" rx="2" fill="#d9eee3" stroke="#247249" stroke-width="0.7"/>
<text x="266.0" y="232" font-size="12" text-anchor="middle" font-weight="400" style="fill:#247249">B2</text>
<rect x="293" y="216" width="24" height="22" rx="2" fill="#dfe7ff" stroke="#3f56a4" stroke-width="0.7"/>
<text x="305.0" y="232" font-size="12" text-anchor="middle" font-weight="400" style="fill:#3f56a4">F3</text>
<rect x="319" y="216" width="50" height="22" rx="2" fill="#d9eee3" stroke="#247249" stroke-width="0.7"/>
<text x="344.0" y="232" font-size="12" text-anchor="middle" font-weight="400" style="fill:#247249">B3</text>
<rect x="371" y="216" width="24" height="22" rx="2" fill="#dfe7ff" stroke="#3f56a4" stroke-width="0.7"/>
<text x="383.0" y="232" font-size="12" text-anchor="middle" font-weight="400" style="fill:#3f56a4">F4</text>
<rect x="397" y="216" width="50" height="22" rx="2" fill="#d9eee3" stroke="#247249" stroke-width="0.7"/>
<text x="422.0" y="232" font-size="12" text-anchor="middle" font-weight="400" style="fill:#247249">B4</text>
<rect x="449" y="216" width="24" height="22" rx="2" fill="#dfe7ff" stroke="#3f56a4" stroke-width="0.7"/>
<text x="461.0" y="232" font-size="12" text-anchor="middle" font-weight="400" style="fill:#3f56a4">F5</text>
<rect x="475" y="216" width="50" height="22" rx="2" fill="#d9eee3" stroke="#247249" stroke-width="0.7"/>
<text x="500.0" y="232" font-size="12" text-anchor="middle" font-weight="400" style="fill:#247249">B5</text>
<rect x="527" y="216" width="24" height="22" rx="2" fill="#dfe7ff" stroke="#3f56a4" stroke-width="0.7"/>
<text x="539.0" y="232" font-size="12" text-anchor="middle" font-weight="400" style="fill:#3f56a4">F6</text>
<rect x="553" y="216" width="50" height="22" rx="2" fill="#d9eee3" stroke="#247249" stroke-width="0.7"/>
<text x="578.0" y="232" font-size="12" text-anchor="middle" font-weight="400" style="fill:#247249">B6</text>
<text x="14" y="298" font-size="12" text-anchor="start" font-weight="400" style="fill:#64748b">F = 1，完整 B = 2；省略通信与参数更新。</text>
</svg>
