<svg xmlns="http://www.w3.org/2000/svg" viewBox="0 0 904.0 329" role="img" aria-label="Zero Bubble · ZB1P 多 stage 的 micro-batch 前后向时间线">
<style>text{font-family:system-ui,sans-serif;fill:#334155}</style>
<rect width="904.0" height="329" fill="#fff"/>
<text x="14" y="25" font-size="17" text-anchor="start" font-weight="600" style="fill:#334155">Zero Bubble · ZB1P</text>
<text x="886.0" y="25" font-size="13" text-anchor="end" font-weight="400" style="fill:#64748b">P = 4 · M = 6</text>
<rect x="14" y="42" width="18" height="14" rx="2" fill="#dfe7ff" stroke="#3f56a4" stroke-width="1"/>
<text x="39" y="54" font-size="12" text-anchor="start" font-weight="400" style="fill:#334155">F 前向</text>
<rect x="159" y="42" width="18" height="14" rx="2" fill="#c9e9f3" stroke="#236d83" stroke-width="1"/>
<text x="184" y="54" font-size="12" text-anchor="start" font-weight="400" style="fill:#334155">X 输入梯度</text>
<rect x="304" y="42" width="18" height="14" rx="2" fill="#ffebc4" stroke="#956a20" stroke-width="1"/>
<text x="329" y="54" font-size="12" text-anchor="start" font-weight="400" style="fill:#334155">W 参数梯度</text>
<rect x="449" y="42" width="18" height="14" rx="2" fill="#f5d6ea" stroke="#963b78" stroke-width="1"/>
<text x="474" y="54" font-size="12" text-anchor="start" font-weight="400" style="fill:#334155">O 优化器更新</text>
<text x="14" y="75" font-size="12" text-anchor="start" font-weight="400" style="fill:#64748b">O 后编号重新从 1 开始：下一迭代</text>
<text x="14" y="94" font-size="12" text-anchor="start" font-weight="400" style="fill:#64748b">数字 = micro-batch 编号；空白 = 等待</text>
<text x="886.0" y="94" font-size="12" text-anchor="end" font-weight="400" style="fill:#64748b">时间 →</text>
<rect x="6" y="111" width="890.0" height="33" rx="4" fill="#f8fafc" stroke="none" stroke-width="1"/>
<text x="13" y="131.0" font-size="12" text-anchor="start" font-weight="600" style="fill:#334155">GPU 0</text>
<text x="93" y="132" font-size="12" text-anchor="end" font-weight="400" style="fill:#334155">S0</text>
<rect x="6" y="151" width="890.0" height="33" rx="4" fill="#f8fafc" stroke="none" stroke-width="1"/>
<text x="13" y="171.0" font-size="12" text-anchor="start" font-weight="600" style="fill:#334155">GPU 1</text>
<text x="93" y="172" font-size="12" text-anchor="end" font-weight="400" style="fill:#334155">S1</text>
<rect x="6" y="191" width="890.0" height="33" rx="4" fill="#f8fafc" stroke="none" stroke-width="1"/>
<text x="13" y="211.0" font-size="12" text-anchor="start" font-weight="600" style="fill:#334155">GPU 2</text>
<text x="93" y="212" font-size="12" text-anchor="end" font-weight="400" style="fill:#334155">S2</text>
<rect x="6" y="231" width="890.0" height="33" rx="4" fill="#f8fafc" stroke="none" stroke-width="1"/>
<text x="13" y="251.0" font-size="12" text-anchor="start" font-weight="600" style="fill:#334155">GPU 3</text>
<text x="93" y="252" font-size="12" text-anchor="end" font-weight="400" style="fill:#334155">S3</text>
<path d="M102.0 107 V264" stroke="#e2e8f0" stroke-width="1"/>
<text x="102.0" y="290" font-size="11" text-anchor="middle" font-weight="400" style="fill:#64748b">0</text>
<path d="M202.64516129032256 107 V264" stroke="#e2e8f0" stroke-width="1"/>
<text x="202.64516129032256" y="290" font-size="11" text-anchor="middle" font-weight="400" style="fill:#64748b">4</text>
<path d="M303.2903225806451 107 V264" stroke="#e2e8f0" stroke-width="1"/>
<text x="303.2903225806451" y="290" font-size="11" text-anchor="middle" font-weight="400" style="fill:#64748b">8</text>
<path d="M403.93548387096774 107 V264" stroke="#e2e8f0" stroke-width="1"/>
<text x="403.93548387096774" y="290" font-size="11" text-anchor="middle" font-weight="400" style="fill:#64748b">12</text>
<path d="M504.5806451612903 107 V264" stroke="#e2e8f0" stroke-width="1"/>
<text x="504.5806451612903" y="290" font-size="11" text-anchor="middle" font-weight="400" style="fill:#64748b">16</text>
<path d="M605.2258064516129 107 V264" stroke="#e2e8f0" stroke-width="1"/>
<text x="605.2258064516129" y="290" font-size="11" text-anchor="middle" font-weight="400" style="fill:#64748b">20</text>
<path d="M705.8709677419355 107 V264" stroke="#e2e8f0" stroke-width="1"/>
<text x="705.8709677419355" y="290" font-size="11" text-anchor="middle" font-weight="400" style="fill:#64748b">24</text>
<path d="M806.516129032258 107 V264" stroke="#e2e8f0" stroke-width="1"/>
<text x="806.516129032258" y="290" font-size="11" text-anchor="middle" font-weight="400" style="fill:#64748b">28</text>
<path d="M882.0 107 V264" stroke="#e2e8f0" stroke-width="1"/>
<text x="882.0" y="290" font-size="11" text-anchor="middle" font-weight="400" style="fill:#64748b">31</text>
<rect x="103.0" y="115" width="23.161290322580644" height="22" rx="2" fill="#dfe7ff" stroke="#3f56a4" stroke-width="0.7"/>
<text x="114.58064516129032" y="131" font-size="14" text-anchor="middle" font-weight="400" style="fill:#3f56a4">1</text>
<rect x="128.16129032258064" y="115" width="23.161290322580644" height="22" rx="2" fill="#dfe7ff" stroke="#3f56a4" stroke-width="0.7"/>
<text x="139.74193548387098" y="131" font-size="14" text-anchor="middle" font-weight="400" style="fill:#3f56a4">2</text>
<rect x="153.32258064516128" y="115" width="23.161290322580644" height="22" rx="2" fill="#dfe7ff" stroke="#3f56a4" stroke-width="0.7"/>
<text x="164.90322580645162" y="131" font-size="14" text-anchor="middle" font-weight="400" style="fill:#3f56a4">3</text>
<rect x="178.48387096774195" y="115" width="23.161290322580644" height="22" rx="2" fill="#dfe7ff" stroke="#3f56a4" stroke-width="0.7"/>
<text x="190.06451612903228" y="131" font-size="14" text-anchor="middle" font-weight="400" style="fill:#3f56a4">4</text>
<rect x="279.1290322580645" y="115" width="23.161290322580644" height="22" rx="2" fill="#c9e9f3" stroke="#236d83" stroke-width="0.7"/>
<text x="290.7096774193548" y="131" font-size="14" text-anchor="middle" font-weight="400" style="fill:#236d83">1</text>
<rect x="304.2903225806451" y="115" width="23.161290322580644" height="22" rx="2" fill="#ffebc4" stroke="#956a20" stroke-width="0.7"/>
<text x="315.87096774193543" y="131" font-size="14" text-anchor="middle" font-weight="400" style="fill:#956a20">1</text>
<rect x="329.4516129032258" y="115" width="23.161290322580644" height="22" rx="2" fill="#dfe7ff" stroke="#3f56a4" stroke-width="0.7"/>
<text x="341.0322580645161" y="131" font-size="14" text-anchor="middle" font-weight="400" style="fill:#3f56a4">5</text>
<rect x="354.61290322580646" y="115" width="23.161290322580644" height="22" rx="2" fill="#c9e9f3" stroke="#236d83" stroke-width="0.7"/>
<text x="366.19354838709677" y="131" font-size="14" text-anchor="middle" font-weight="400" style="fill:#236d83">2</text>
<rect x="379.7741935483871" y="115" width="23.161290322580644" height="22" rx="2" fill="#ffebc4" stroke="#956a20" stroke-width="0.7"/>
<text x="391.3548387096774" y="131" font-size="14" text-anchor="middle" font-weight="400" style="fill:#956a20">2</text>
<rect x="404.93548387096774" y="115" width="23.161290322580644" height="22" rx="2" fill="#dfe7ff" stroke="#3f56a4" stroke-width="0.7"/>
<text x="416.51612903225805" y="131" font-size="14" text-anchor="middle" font-weight="400" style="fill:#3f56a4">6</text>
<rect x="430.09677419354836" y="115" width="23.161290322580644" height="22" rx="2" fill="#c9e9f3" stroke="#236d83" stroke-width="0.7"/>
<text x="441.67741935483866" y="131" font-size="14" text-anchor="middle" font-weight="400" style="fill:#236d83">3</text>
<rect x="455.258064516129" y="115" width="23.161290322580644" height="22" rx="2" fill="#ffebc4" stroke="#956a20" stroke-width="0.7"/>
<text x="466.83870967741933" y="131" font-size="14" text-anchor="middle" font-weight="400" style="fill:#956a20">3</text>
<rect x="480.41935483870964" y="115" width="23.161290322580644" height="22" rx="2" fill="#c9e9f3" stroke="#236d83" stroke-width="0.7"/>
<text x="491.99999999999994" y="131" font-size="14" text-anchor="middle" font-weight="400" style="fill:#236d83">4</text>
<rect x="505.5806451612903" y="115" width="23.161290322580644" height="22" rx="2" fill="#ffebc4" stroke="#956a20" stroke-width="0.7"/>
<text x="517.1612903225806" y="131" font-size="14" text-anchor="middle" font-weight="400" style="fill:#956a20">4</text>
<rect x="530.741935483871" y="115" width="23.161290322580644" height="22" rx="2" fill="#c9e9f3" stroke="#236d83" stroke-width="0.7"/>
<text x="542.3225806451613" y="131" font-size="14" text-anchor="middle" font-weight="400" style="fill:#236d83">5</text>
<rect x="555.9032258064516" y="115" width="23.161290322580644" height="22" rx="2" fill="#ffebc4" stroke="#956a20" stroke-width="0.7"/>
<text x="567.483870967742" y="131" font-size="14" text-anchor="middle" font-weight="400" style="fill:#956a20">5</text>
<rect x="581.0645161290322" y="115" width="23.161290322580644" height="22" rx="2" fill="#c9e9f3" stroke="#236d83" stroke-width="0.7"/>
<text x="592.6451612903226" y="131" font-size="14" text-anchor="middle" font-weight="400" style="fill:#236d83">6</text>
<rect x="606.2258064516129" y="115" width="23.161290322580644" height="22" rx="2" fill="#ffebc4" stroke="#956a20" stroke-width="0.7"/>
<text x="617.8064516129033" y="131" font-size="14" text-anchor="middle" font-weight="400" style="fill:#956a20">6</text>
<rect x="128.16129032258064" y="155" width="23.161290322580644" height="22" rx="2" fill="#dfe7ff" stroke="#3f56a4" stroke-width="0.7"/>
<text x="139.74193548387098" y="171" font-size="14" text-anchor="middle" font-weight="400" style="fill:#3f56a4">1</text>
<rect x="153.32258064516128" y="155" width="23.161290322580644" height="22" rx="2" fill="#dfe7ff" stroke="#3f56a4" stroke-width="0.7"/>
<text x="164.90322580645162" y="171" font-size="14" text-anchor="middle" font-weight="400" style="fill:#3f56a4">2</text>
<rect x="178.48387096774195" y="155" width="23.161290322580644" height="22" rx="2" fill="#dfe7ff" stroke="#3f56a4" stroke-width="0.7"/>
<text x="190.06451612903228" y="171" font-size="14" text-anchor="middle" font-weight="400" style="fill:#3f56a4">3</text>
<rect x="253.96774193548387" y="155" width="23.161290322580644" height="22" rx="2" fill="#c9e9f3" stroke="#236d83" stroke-width="0.7"/>
<text x="265.5483870967742" y="171" font-size="14" text-anchor="middle" font-weight="400" style="fill:#236d83">1</text>
<rect x="279.1290322580645" y="155" width="23.161290322580644" height="22" rx="2" fill="#dfe7ff" stroke="#3f56a4" stroke-width="0.7"/>
<text x="290.7096774193548" y="171" font-size="14" text-anchor="middle" font-weight="400" style="fill:#3f56a4">4</text>
<rect x="304.2903225806451" y="155" width="23.161290322580644" height="22" rx="2" fill="#c9e9f3" stroke="#236d83" stroke-width="0.7"/>
<text x="315.87096774193543" y="171" font-size="14" text-anchor="middle" font-weight="400" style="fill:#236d83">2</text>
<rect x="329.4516129032258" y="155" width="23.161290322580644" height="22" rx="2" fill="#ffebc4" stroke="#956a20" stroke-width="0.7"/>
<text x="341.0322580645161" y="171" font-size="14" text-anchor="middle" font-weight="400" style="fill:#956a20">1</text>
<rect x="354.61290322580646" y="155" width="23.161290322580644" height="22" rx="2" fill="#dfe7ff" stroke="#3f56a4" stroke-width="0.7"/>
<text x="366.19354838709677" y="171" font-size="14" text-anchor="middle" font-weight="400" style="fill:#3f56a4">5</text>
<rect x="379.7741935483871" y="155" width="23.161290322580644" height="22" rx="2" fill="#c9e9f3" stroke="#236d83" stroke-width="0.7"/>
<text x="391.3548387096774" y="171" font-size="14" text-anchor="middle" font-weight="400" style="fill:#236d83">3</text>
<rect x="404.93548387096774" y="155" width="23.161290322580644" height="22" rx="2" fill="#ffebc4" stroke="#956a20" stroke-width="0.7"/>
<text x="416.51612903225805" y="171" font-size="14" text-anchor="middle" font-weight="400" style="fill:#956a20">2</text>
<rect x="430.09677419354836" y="155" width="23.161290322580644" height="22" rx="2" fill="#dfe7ff" stroke="#3f56a4" stroke-width="0.7"/>
<text x="441.67741935483866" y="171" font-size="14" text-anchor="middle" font-weight="400" style="fill:#3f56a4">6</text>
<rect x="455.258064516129" y="155" width="23.161290322580644" height="22" rx="2" fill="#c9e9f3" stroke="#236d83" stroke-width="0.7"/>
<text x="466.83870967741933" y="171" font-size="14" text-anchor="middle" font-weight="400" style="fill:#236d83">4</text>
<rect x="480.41935483870964" y="155" width="23.161290322580644" height="22" rx="2" fill="#ffebc4" stroke="#956a20" stroke-width="0.7"/>
<text x="491.99999999999994" y="171" font-size="14" text-anchor="middle" font-weight="400" style="fill:#956a20">3</text>
<rect x="505.5806451612903" y="155" width="23.161290322580644" height="22" rx="2" fill="#c9e9f3" stroke="#236d83" stroke-width="0.7"/>
<text x="517.1612903225806" y="171" font-size="14" text-anchor="middle" font-weight="400" style="fill:#236d83">5</text>
<rect x="530.741935483871" y="155" width="23.161290322580644" height="22" rx="2" fill="#ffebc4" stroke="#956a20" stroke-width="0.7"/>
<text x="542.3225806451613" y="171" font-size="14" text-anchor="middle" font-weight="400" style="fill:#956a20">4</text>
<rect x="555.9032258064516" y="155" width="23.161290322580644" height="22" rx="2" fill="#c9e9f3" stroke="#236d83" stroke-width="0.7"/>
<text x="567.483870967742" y="171" font-size="14" text-anchor="middle" font-weight="400" style="fill:#236d83">6</text>
<rect x="581.0645161290322" y="155" width="23.161290322580644" height="22" rx="2" fill="#ffebc4" stroke="#956a20" stroke-width="0.7"/>
<text x="592.6451612903226" y="171" font-size="14" text-anchor="middle" font-weight="400" style="fill:#956a20">5</text>
<rect x="606.2258064516129" y="155" width="23.161290322580644" height="22" rx="2" fill="#ffebc4" stroke="#956a20" stroke-width="0.7"/>
<text x="617.8064516129033" y="171" font-size="14" text-anchor="middle" font-weight="400" style="fill:#956a20">6</text>
<rect x="153.32258064516128" y="195" width="23.161290322580644" height="22" rx="2" fill="#dfe7ff" stroke="#3f56a4" stroke-width="0.7"/>
<text x="164.90322580645162" y="211" font-size="14" text-anchor="middle" font-weight="400" style="fill:#3f56a4">1</text>
<rect x="178.48387096774195" y="195" width="23.161290322580644" height="22" rx="2" fill="#dfe7ff" stroke="#3f56a4" stroke-width="0.7"/>
<text x="190.06451612903228" y="211" font-size="14" text-anchor="middle" font-weight="400" style="fill:#3f56a4">2</text>
<rect x="228.80645161290323" y="195" width="23.161290322580644" height="22" rx="2" fill="#c9e9f3" stroke="#236d83" stroke-width="0.7"/>
<text x="240.38709677419357" y="211" font-size="14" text-anchor="middle" font-weight="400" style="fill:#236d83">1</text>
<rect x="253.96774193548387" y="195" width="23.161290322580644" height="22" rx="2" fill="#dfe7ff" stroke="#3f56a4" stroke-width="0.7"/>
<text x="265.5483870967742" y="211" font-size="14" text-anchor="middle" font-weight="400" style="fill:#3f56a4">3</text>
<rect x="279.1290322580645" y="195" width="23.161290322580644" height="22" rx="2" fill="#c9e9f3" stroke="#236d83" stroke-width="0.7"/>
<text x="290.7096774193548" y="211" font-size="14" text-anchor="middle" font-weight="400" style="fill:#236d83">2</text>
<rect x="304.2903225806451" y="195" width="23.161290322580644" height="22" rx="2" fill="#dfe7ff" stroke="#3f56a4" stroke-width="0.7"/>
<text x="315.87096774193543" y="211" font-size="14" text-anchor="middle" font-weight="400" style="fill:#3f56a4">4</text>
<rect x="329.4516129032258" y="195" width="23.161290322580644" height="22" rx="2" fill="#c9e9f3" stroke="#236d83" stroke-width="0.7"/>
<text x="341.0322580645161" y="211" font-size="14" text-anchor="middle" font-weight="400" style="fill:#236d83">3</text>
<rect x="354.61290322580646" y="195" width="23.161290322580644" height="22" rx="2" fill="#ffebc4" stroke="#956a20" stroke-width="0.7"/>
<text x="366.19354838709677" y="211" font-size="14" text-anchor="middle" font-weight="400" style="fill:#956a20">1</text>
<rect x="379.7741935483871" y="195" width="23.161290322580644" height="22" rx="2" fill="#dfe7ff" stroke="#3f56a4" stroke-width="0.7"/>
<text x="391.3548387096774" y="211" font-size="14" text-anchor="middle" font-weight="400" style="fill:#3f56a4">5</text>
<rect x="404.93548387096774" y="195" width="23.161290322580644" height="22" rx="2" fill="#c9e9f3" stroke="#236d83" stroke-width="0.7"/>
<text x="416.51612903225805" y="211" font-size="14" text-anchor="middle" font-weight="400" style="fill:#236d83">4</text>
<rect x="430.09677419354836" y="195" width="23.161290322580644" height="22" rx="2" fill="#ffebc4" stroke="#956a20" stroke-width="0.7"/>
<text x="441.67741935483866" y="211" font-size="14" text-anchor="middle" font-weight="400" style="fill:#956a20">2</text>
<rect x="455.258064516129" y="195" width="23.161290322580644" height="22" rx="2" fill="#dfe7ff" stroke="#3f56a4" stroke-width="0.7"/>
<text x="466.83870967741933" y="211" font-size="14" text-anchor="middle" font-weight="400" style="fill:#3f56a4">6</text>
<rect x="480.41935483870964" y="195" width="23.161290322580644" height="22" rx="2" fill="#c9e9f3" stroke="#236d83" stroke-width="0.7"/>
<text x="491.99999999999994" y="211" font-size="14" text-anchor="middle" font-weight="400" style="fill:#236d83">5</text>
<rect x="505.5806451612903" y="195" width="23.161290322580644" height="22" rx="2" fill="#ffebc4" stroke="#956a20" stroke-width="0.7"/>
<text x="517.1612903225806" y="211" font-size="14" text-anchor="middle" font-weight="400" style="fill:#956a20">3</text>
<rect x="530.741935483871" y="195" width="23.161290322580644" height="22" rx="2" fill="#c9e9f3" stroke="#236d83" stroke-width="0.7"/>
<text x="542.3225806451613" y="211" font-size="14" text-anchor="middle" font-weight="400" style="fill:#236d83">6</text>
<rect x="555.9032258064516" y="195" width="23.161290322580644" height="22" rx="2" fill="#ffebc4" stroke="#956a20" stroke-width="0.7"/>
<text x="567.483870967742" y="211" font-size="14" text-anchor="middle" font-weight="400" style="fill:#956a20">4</text>
<rect x="581.0645161290322" y="195" width="23.161290322580644" height="22" rx="2" fill="#ffebc4" stroke="#956a20" stroke-width="0.7"/>
<text x="592.6451612903226" y="211" font-size="14" text-anchor="middle" font-weight="400" style="fill:#956a20">5</text>
<rect x="606.2258064516129" y="195" width="23.161290322580644" height="22" rx="2" fill="#ffebc4" stroke="#956a20" stroke-width="0.7"/>
<text x="617.8064516129033" y="211" font-size="14" text-anchor="middle" font-weight="400" style="fill:#956a20">6</text>
<rect x="178.48387096774195" y="235" width="23.161290322580644" height="22" rx="2" fill="#dfe7ff" stroke="#3f56a4" stroke-width="0.7"/>
<text x="190.06451612903228" y="251" font-size="14" text-anchor="middle" font-weight="400" style="fill:#3f56a4">1</text>
<rect x="203.64516129032256" y="235" width="23.161290322580644" height="22" rx="2" fill="#c9e9f3" stroke="#236d83" stroke-width="0.7"/>
<text x="215.2258064516129" y="251" font-size="14" text-anchor="middle" font-weight="400" style="fill:#236d83">1</text>
<rect x="228.80645161290323" y="235" width="23.161290322580644" height="22" rx="2" fill="#dfe7ff" stroke="#3f56a4" stroke-width="0.7"/>
<text x="240.38709677419357" y="251" font-size="14" text-anchor="middle" font-weight="400" style="fill:#3f56a4">2</text>
<rect x="253.96774193548387" y="235" width="23.161290322580644" height="22" rx="2" fill="#c9e9f3" stroke="#236d83" stroke-width="0.7"/>
<text x="265.5483870967742" y="251" font-size="14" text-anchor="middle" font-weight="400" style="fill:#236d83">2</text>
<rect x="279.1290322580645" y="235" width="23.161290322580644" height="22" rx="2" fill="#dfe7ff" stroke="#3f56a4" stroke-width="0.7"/>
<text x="290.7096774193548" y="251" font-size="14" text-anchor="middle" font-weight="400" style="fill:#3f56a4">3</text>
<rect x="304.2903225806451" y="235" width="23.161290322580644" height="22" rx="2" fill="#c9e9f3" stroke="#236d83" stroke-width="0.7"/>
<text x="315.87096774193543" y="251" font-size="14" text-anchor="middle" font-weight="400" style="fill:#236d83">3</text>
<rect x="329.4516129032258" y="235" width="23.161290322580644" height="22" rx="2" fill="#dfe7ff" stroke="#3f56a4" stroke-width="0.7"/>
<text x="341.0322580645161" y="251" font-size="14" text-anchor="middle" font-weight="400" style="fill:#3f56a4">4</text>
<rect x="354.61290322580646" y="235" width="23.161290322580644" height="22" rx="2" fill="#c9e9f3" stroke="#236d83" stroke-width="0.7"/>
<text x="366.19354838709677" y="251" font-size="14" text-anchor="middle" font-weight="400" style="fill:#236d83">4</text>
<rect x="379.7741935483871" y="235" width="23.161290322580644" height="22" rx="2" fill="#ffebc4" stroke="#956a20" stroke-width="0.7"/>
<text x="391.3548387096774" y="251" font-size="14" text-anchor="middle" font-weight="400" style="fill:#956a20">1</text>
<rect x="404.93548387096774" y="235" width="23.161290322580644" height="22" rx="2" fill="#dfe7ff" stroke="#3f56a4" stroke-width="0.7"/>
<text x="416.51612903225805" y="251" font-size="14" text-anchor="middle" font-weight="400" style="fill:#3f56a4">5</text>
<rect x="430.09677419354836" y="235" width="23.161290322580644" height="22" rx="2" fill="#c9e9f3" stroke="#236d83" stroke-width="0.7"/>
<text x="441.67741935483866" y="251" font-size="14" text-anchor="middle" font-weight="400" style="fill:#236d83">5</text>
<rect x="455.258064516129" y="235" width="23.161290322580644" height="22" rx="2" fill="#ffebc4" stroke="#956a20" stroke-width="0.7"/>
<text x="466.83870967741933" y="251" font-size="14" text-anchor="middle" font-weight="400" style="fill:#956a20">2</text>
<rect x="480.41935483870964" y="235" width="23.161290322580644" height="22" rx="2" fill="#dfe7ff" stroke="#3f56a4" stroke-width="0.7"/>
<text x="491.99999999999994" y="251" font-size="14" text-anchor="middle" font-weight="400" style="fill:#3f56a4">6</text>
<rect x="505.5806451612903" y="235" width="23.161290322580644" height="22" rx="2" fill="#c9e9f3" stroke="#236d83" stroke-width="0.7"/>
<text x="517.1612903225806" y="251" font-size="14" text-anchor="middle" font-weight="400" style="fill:#236d83">6</text>
<rect x="530.741935483871" y="235" width="23.161290322580644" height="22" rx="2" fill="#ffebc4" stroke="#956a20" stroke-width="0.7"/>
<text x="542.3225806451613" y="251" font-size="14" text-anchor="middle" font-weight="400" style="fill:#956a20">3</text>
<rect x="555.9032258064516" y="235" width="23.161290322580644" height="22" rx="2" fill="#ffebc4" stroke="#956a20" stroke-width="0.7"/>
<text x="567.483870967742" y="251" font-size="14" text-anchor="middle" font-weight="400" style="fill:#956a20">4</text>
<rect x="581.0645161290322" y="235" width="23.161290322580644" height="22" rx="2" fill="#ffebc4" stroke="#956a20" stroke-width="0.7"/>
<text x="592.6451612903226" y="251" font-size="14" text-anchor="middle" font-weight="400" style="fill:#956a20">5</text>
<rect x="606.2258064516129" y="235" width="23.161290322580644" height="22" rx="2" fill="#ffebc4" stroke="#956a20" stroke-width="0.7"/>
<text x="617.8064516129033" y="251" font-size="14" text-anchor="middle" font-weight="400" style="fill:#956a20">6</text>
<rect x="631.3870967741935" y="115" width="23.161290322580644" height="22" rx="2" fill="#f5d6ea" stroke="#963b78" stroke-width="0.7"/>
<text x="642.9677419354839" y="131" font-size="14" text-anchor="middle" font-weight="400" style="fill:#963b78">O</text>
<rect x="631.3870967741935" y="155" width="23.161290322580644" height="22" rx="2" fill="#f5d6ea" stroke="#963b78" stroke-width="0.7"/>
<text x="642.9677419354839" y="171" font-size="14" text-anchor="middle" font-weight="400" style="fill:#963b78">O</text>
<rect x="631.3870967741935" y="195" width="23.161290322580644" height="22" rx="2" fill="#f5d6ea" stroke="#963b78" stroke-width="0.7"/>
<text x="642.9677419354839" y="211" font-size="14" text-anchor="middle" font-weight="400" style="fill:#963b78">O</text>
<rect x="631.3870967741935" y="235" width="23.161290322580644" height="22" rx="2" fill="#f5d6ea" stroke="#963b78" stroke-width="0.7"/>
<text x="642.9677419354839" y="251" font-size="14" text-anchor="middle" font-weight="400" style="fill:#963b78">O</text>
<rect x="656.5483870967741" y="115" width="23.161290322580644" height="22" rx="2" fill="#dfe7ff" stroke="#3f56a4" stroke-width="0.7"/>
<text x="668.1290322580645" y="131" font-size="14" text-anchor="middle" font-weight="400" style="fill:#3f56a4">1</text>
<rect x="681.7096774193548" y="115" width="23.161290322580644" height="22" rx="2" fill="#dfe7ff" stroke="#3f56a4" stroke-width="0.7"/>
<text x="693.2903225806451" y="131" font-size="14" text-anchor="middle" font-weight="400" style="fill:#3f56a4">2</text>
<rect x="706.8709677419355" y="115" width="23.161290322580644" height="22" rx="2" fill="#dfe7ff" stroke="#3f56a4" stroke-width="0.7"/>
<text x="718.4516129032259" y="131" font-size="14" text-anchor="middle" font-weight="400" style="fill:#3f56a4">3</text>
<rect x="732.0322580645161" y="115" width="23.161290322580644" height="22" rx="2" fill="#dfe7ff" stroke="#3f56a4" stroke-width="0.7"/>
<text x="743.6129032258065" y="131" font-size="14" text-anchor="middle" font-weight="400" style="fill:#3f56a4">4</text>
<rect x="832.6774193548387" y="115" width="23.161290322580644" height="22" rx="2" fill="#c9e9f3" stroke="#236d83" stroke-width="0.7"/>
<text x="844.258064516129" y="131" font-size="14" text-anchor="middle" font-weight="400" style="fill:#236d83">1</text>
<rect x="857.8387096774193" y="115" width="23.161290322580644" height="22" rx="2" fill="#ffebc4" stroke="#956a20" stroke-width="0.7"/>
<text x="869.4193548387096" y="131" font-size="14" text-anchor="middle" font-weight="400" style="fill:#956a20">1</text>
<rect x="681.7096774193548" y="155" width="23.161290322580644" height="22" rx="2" fill="#dfe7ff" stroke="#3f56a4" stroke-width="0.7"/>
<text x="693.2903225806451" y="171" font-size="14" text-anchor="middle" font-weight="400" style="fill:#3f56a4">1</text>
<rect x="706.8709677419355" y="155" width="23.161290322580644" height="22" rx="2" fill="#dfe7ff" stroke="#3f56a4" stroke-width="0.7"/>
<text x="718.4516129032259" y="171" font-size="14" text-anchor="middle" font-weight="400" style="fill:#3f56a4">2</text>
<rect x="732.0322580645161" y="155" width="23.161290322580644" height="22" rx="2" fill="#dfe7ff" stroke="#3f56a4" stroke-width="0.7"/>
<text x="743.6129032258065" y="171" font-size="14" text-anchor="middle" font-weight="400" style="fill:#3f56a4">3</text>
<rect x="807.516129032258" y="155" width="23.161290322580644" height="22" rx="2" fill="#c9e9f3" stroke="#236d83" stroke-width="0.7"/>
<text x="819.0967741935484" y="171" font-size="14" text-anchor="middle" font-weight="400" style="fill:#236d83">1</text>
<rect x="832.6774193548387" y="155" width="23.161290322580644" height="22" rx="2" fill="#dfe7ff" stroke="#3f56a4" stroke-width="0.7"/>
<text x="844.258064516129" y="171" font-size="14" text-anchor="middle" font-weight="400" style="fill:#3f56a4">4</text>
<rect x="857.8387096774193" y="155" width="23.161290322580644" height="22" rx="2" fill="#c9e9f3" stroke="#236d83" stroke-width="0.7"/>
<text x="869.4193548387096" y="171" font-size="14" text-anchor="middle" font-weight="400" style="fill:#236d83">2</text>
<rect x="706.8709677419355" y="195" width="23.161290322580644" height="22" rx="2" fill="#dfe7ff" stroke="#3f56a4" stroke-width="0.7"/>
<text x="718.4516129032259" y="211" font-size="14" text-anchor="middle" font-weight="400" style="fill:#3f56a4">1</text>
<rect x="732.0322580645161" y="195" width="23.161290322580644" height="22" rx="2" fill="#dfe7ff" stroke="#3f56a4" stroke-width="0.7"/>
<text x="743.6129032258065" y="211" font-size="14" text-anchor="middle" font-weight="400" style="fill:#3f56a4">2</text>
<rect x="782.3548387096774" y="195" width="23.161290322580644" height="22" rx="2" fill="#c9e9f3" stroke="#236d83" stroke-width="0.7"/>
<text x="793.9354838709678" y="211" font-size="14" text-anchor="middle" font-weight="400" style="fill:#236d83">1</text>
<rect x="807.516129032258" y="195" width="23.161290322580644" height="22" rx="2" fill="#dfe7ff" stroke="#3f56a4" stroke-width="0.7"/>
<text x="819.0967741935484" y="211" font-size="14" text-anchor="middle" font-weight="400" style="fill:#3f56a4">3</text>
<rect x="832.6774193548387" y="195" width="23.161290322580644" height="22" rx="2" fill="#c9e9f3" stroke="#236d83" stroke-width="0.7"/>
<text x="844.258064516129" y="211" font-size="14" text-anchor="middle" font-weight="400" style="fill:#236d83">2</text>
<rect x="857.8387096774193" y="195" width="23.161290322580644" height="22" rx="2" fill="#dfe7ff" stroke="#3f56a4" stroke-width="0.7"/>
<text x="869.4193548387096" y="211" font-size="14" text-anchor="middle" font-weight="400" style="fill:#3f56a4">4</text>
<rect x="732.0322580645161" y="235" width="23.161290322580644" height="22" rx="2" fill="#dfe7ff" stroke="#3f56a4" stroke-width="0.7"/>
<text x="743.6129032258065" y="251" font-size="14" text-anchor="middle" font-weight="400" style="fill:#3f56a4">1</text>
<rect x="757.1935483870967" y="235" width="23.161290322580644" height="22" rx="2" fill="#c9e9f3" stroke="#236d83" stroke-width="0.7"/>
<text x="768.7741935483871" y="251" font-size="14" text-anchor="middle" font-weight="400" style="fill:#236d83">1</text>
<rect x="782.3548387096774" y="235" width="23.161290322580644" height="22" rx="2" fill="#dfe7ff" stroke="#3f56a4" stroke-width="0.7"/>
<text x="793.9354838709678" y="251" font-size="14" text-anchor="middle" font-weight="400" style="fill:#3f56a4">2</text>
<rect x="807.516129032258" y="235" width="23.161290322580644" height="22" rx="2" fill="#c9e9f3" stroke="#236d83" stroke-width="0.7"/>
<text x="819.0967741935484" y="251" font-size="14" text-anchor="middle" font-weight="400" style="fill:#236d83">2</text>
<rect x="832.6774193548387" y="235" width="23.161290322580644" height="22" rx="2" fill="#dfe7ff" stroke="#3f56a4" stroke-width="0.7"/>
<text x="844.258064516129" y="251" font-size="14" text-anchor="middle" font-weight="400" style="fill:#3f56a4">3</text>
<rect x="857.8387096774193" y="235" width="23.161290322580644" height="22" rx="2" fill="#c9e9f3" stroke="#236d83" stroke-width="0.7"/>
<text x="869.4193548387096" y="251" font-size="14" text-anchor="middle" font-weight="400" style="fill:#236d83">3</text>
<text x="14" y="317" font-size="12" text-anchor="start" font-weight="400" style="fill:#64748b">F = X = W = 1；O = 1（示意）；展示后置校验通过的路径，未展开通信。</text>
</svg>
